# xmcd
#
# Track frame offsets:
#	150
#	16605
#	42778
#	57566
#	91635
#	128336
#	144941
#	185904
#	205559
#	217223
#	248752
#	265956
#	319248
#
# Disc length: 4457 seconds
#
# Revision: 1
# Processed by: cddbd v1.5.2PL0 Copyright (c) Steve Scherf et al.
# Submitted via: audiograbber 1.83.01
#
DISCID=b111670d
DTITLE=Catfish - So Many Roads - When BB Sings The Blues
DYEAR=2016
DGENRE=Blues
TTITLE0=Black Cat Bone
TTITLE1=So Many Roads
TTITLE2=Framed
TTITLE3=Catfish Blues
TTITLE4=Five Long Years
TTITLE5=Little By Little
TTITLE6=Somebody Loan Me A Dime
TTITLE7=Going Down
TTITLE8=You Upset Me Baby
TTITLE9=The Thrill Is Gone
TTITLE10=Never Make Your Move Too Soon
TTITLE11=How Blue Can You Get
TTITLE12=When BB Songs The Blues
EXTD=
EXTT0=
EXTT1=
EXTT2=
EXTT3=
EXTT4=
EXTT5=
EXTT6=
EXTT7=
EXTT8=
EXTT9=
EXTT10=
EXTT11=
EXTT12=
PLAYORDER=
